<svg width="74" height="71" viewBox="0 0 74 71" fill="none" xmlns="http://www.w3.org/2000/svg">
<path fill-rule="evenodd" clip-rule="evenodd" d="M37.5002 15.0078C26.445 15.0078 17.4805 24.4079 17.4805 36.0041C17.4805 45.2808 23.2167 53.1511 31.1712 55.9274C32.1717 56.1217 32.539 55.4719 32.539 54.9173C32.539 54.4167 32.5204 52.7627 32.5118 51.0083C26.9423 52.2784 25.7671 48.531 25.7671 48.531C24.8564 46.1041 23.5443 45.4588 23.5443 45.4588C21.7279 44.1557 23.6812 44.1824 23.6812 44.1824C25.6915 44.3305 26.75 46.3461 26.75 46.3461C28.5356 49.556 31.4334 48.628 32.5758 48.0915C32.7555 46.7345 33.2743 45.8082 33.8468 45.2839C29.4002 44.753 24.7258 42.9527 24.7258 34.9075C24.7258 32.6152 25.5078 30.7421 26.7885 29.2718C26.5806 28.7429 25.8954 26.6074 26.9824 23.7153C26.9824 23.7153 28.6636 23.151 32.4893 25.8675C34.0862 25.4023 35.7988 25.169 37.5002 25.161C39.2015 25.169 40.9155 25.4023 42.5154 25.8675C46.3364 23.151 48.0152 23.7153 48.0152 23.7153C49.1049 26.6074 48.4194 28.7429 48.2115 29.2718C49.4951 30.7421 50.2719 32.6152 50.2719 34.9075C50.2719 42.9718 45.5885 44.7474 41.1306 45.2672C41.8487 45.9188 42.4885 47.1965 42.4885 49.1554C42.4885 51.9648 42.4653 54.2258 42.4653 54.9173C42.4653 55.4761 42.8257 56.1308 43.8404 55.9246C51.7906 53.1452 57.5195 45.2777 57.5195 36.0041C57.5195 24.4079 48.5563 15.0078 37.5002 15.0078ZM24.9785 44.9174C24.9344 45.0217 24.7779 45.053 24.6354 44.9814C24.4902 44.9129 24.4086 44.7707 24.4557 44.6661C24.4988 44.5586 24.6556 44.5287 24.8005 44.6007C24.946 44.6692 25.0289 44.8128 24.9785 44.9174ZM25.9632 45.839C25.8678 45.9318 25.6811 45.8887 25.5545 45.742C25.4235 45.5956 25.399 45.3998 25.4958 45.3056C25.5943 45.2128 25.7753 45.2563 25.9066 45.4026C26.0375 45.5507 26.063 45.7451 25.9632 45.839ZM26.6388 47.0181C26.5162 47.1074 26.3156 47.0236 26.1916 46.8369C26.0689 46.6502 26.0689 46.4263 26.1943 46.3366C26.3186 46.2469 26.5162 46.3275 26.6418 46.5129C26.7641 46.7027 26.7641 46.9266 26.6388 47.0181ZM27.7814 48.3836C27.6716 48.5105 27.4379 48.4764 27.2668 48.3033C27.0918 48.134 27.0431 47.8937 27.1531 47.7668C27.2642 47.6395 27.4992 47.6753 27.6716 47.8471C27.8453 48.0161 27.8984 48.2581 27.7814 48.3836ZM29.258 48.8446C29.2096 49.009 28.9845 49.0838 28.7577 49.0139C28.5313 48.9419 28.3831 48.7493 28.4289 48.5831C28.4759 48.4176 28.702 48.3397 28.9304 48.4145C29.1565 48.4861 29.3051 48.6773 29.258 48.8446ZM30.9384 49.0401C30.9441 49.2133 30.7518 49.3569 30.5138 49.36C30.2744 49.3656 30.0808 49.2254 30.0781 49.0551C30.0781 48.8802 30.2661 48.738 30.5055 48.7338C30.7435 48.7289 30.9384 48.868 30.9384 49.0401ZM32.5893 48.9738C32.6178 49.1427 32.4524 49.3162 32.216 49.3625C31.9836 49.407 31.7685 49.3027 31.739 49.1351C31.7101 48.9619 31.8785 48.7884 32.1106 48.7436C32.3473 48.7005 32.5591 48.802 32.5893 48.9738Z" fill="#161614"/>
<circle cx="37.2833" cy="35.2833" r="31.2833" stroke="black" stroke-width="1.47216"/>
</svg>
