<svg width="21" height="24" viewBox="0 0 21 24" fill="none" xmlns="http://www.w3.org/2000/svg">
<g id="symbol">
<path id="Shape" fill-rule="evenodd" clip-rule="evenodd" d="M2.35442 21.4068L0.515015 0.775635H20.727L18.8856 21.4035L10.6086 23.6982L2.35442 21.4068Z" fill="#E44D26"/>
<path id="Shape_2" fill-rule="evenodd" clip-rule="evenodd" d="M10.621 21.9444L17.3092 20.0901L18.8827 2.46265H10.621V21.9444Z" fill="#F16529"/>
<g id="Union">
<path d="M7.27269 10.1144H10.621V12.6447H4.9586L4.27612 4.99292H10.621V7.52327H7.04145L7.27269 10.1144Z" fill="#EBEBEB"/>
<path d="M10.6099 16.6888L10.621 16.6859V19.3185L10.6093 19.3217L5.42615 17.8828L5.07165 13.9099H7.6117L7.79185 15.9279L10.6099 16.6888Z" fill="#EBEBEB"/>
</g>
<g id="Union_2">
<path d="M10.6122 4.99292H16.9507L16.7242 7.52327H10.6122V4.99292Z" fill="white"/>
<path d="M10.6122 12.6447V10.1144H16.4939L16.4322 10.7938L15.7995 17.8828L10.6122 19.3205V16.688L13.4344 15.9263L13.7281 12.6447H10.6122Z" fill="white"/>
</g>
</g>
</svg>
