<svg width="65" height="65" viewBox="0 0 65 65" fill="none" xmlns="http://www.w3.org/2000/svg">
<circle cx="32.2833" cy="32.2833" r="31.2833" stroke="black" stroke-width="1.47216"/>
<path d="M39.6335 43.6927H24.9331C22.9017 43.6927 21.2421 42.0331 21.2421 40.0017V25.3013C21.2421 23.2699 22.9017 21.6104 24.9331 21.6104H39.6335C41.6649 21.6104 43.3245 23.2699 43.3245 25.3013V40.0017C43.3245 42.0422 41.6739 43.6927 39.6335 43.6927Z" stroke="black" stroke-width="1.47216"/>
<path d="M28.2794 36.6641C29.3496 37.7342 30.7733 38.3237 32.2878 38.3237C33.8023 38.3237 35.217 37.7342 36.2962 36.6641C37.3663 35.594 37.9558 34.1702 37.9558 32.6557C37.9558 31.1413 37.3663 29.7175 36.2962 28.6474C35.2261 27.5773 33.8023 26.9878 32.2878 26.9878C30.7733 26.9878 29.3496 27.5773 28.2794 28.6474C27.2093 29.7175 26.6199 31.1413 26.6199 32.6557C26.6199 34.1702 27.2093 35.594 28.2794 36.6641Z" stroke="black" stroke-width="1.47216"/>
<path d="M39.0606 26.8015C39.6616 26.8015 40.1488 26.3143 40.1488 25.7133C40.1488 25.1122 39.6616 24.625 39.0606 24.625C38.4595 24.625 37.9723 25.1122 37.9723 25.7133C37.9723 26.3143 38.4595 26.8015 39.0606 26.8015Z" stroke="black" stroke-width="1.47216"/>
</svg>
