<svg width="65" height="65" viewBox="0 0 65 65" fill="none" xmlns="http://www.w3.org/2000/svg">
<circle cx="32.7166" cy="32.2833" r="31.2833" stroke="black" stroke-width="1.47216"/>
<path d="M25.6527 28.2417H20.2695V45.4086H25.6527V28.2417Z" stroke="black" stroke-width="1.47216"/>
<path d="M40.2148 27.8697C40.0163 27.8449 39.8055 27.8325 39.5946 27.8201C36.5805 27.6961 34.8812 29.4822 34.2858 30.2513C34.1245 30.4621 34.0501 30.5862 34.0501 30.5862V28.2915H28.9025V45.4583H34.0501H34.2858C34.2858 43.7094 34.2858 41.9729 34.2858 40.2239C34.2858 39.2812 34.2858 38.3385 34.2858 37.3959C34.2858 36.2299 34.199 34.9895 34.7819 33.9228C35.2781 33.0297 36.1712 32.5832 37.1759 32.5832C40.1528 32.5832 40.2148 35.2748 40.2148 35.5229C40.2148 35.5353 40.2148 35.5477 40.2148 35.5477V45.5328H45.5981V34.3321C45.5981 30.4993 43.6507 28.2418 40.2148 27.8697Z" stroke="black" stroke-width="1.47216"/>
<path d="M22.9611 26.0215C24.6874 26.0215 26.0869 24.6221 26.0869 22.8958C26.0869 21.1695 24.6874 19.77 22.9611 19.77C21.2348 19.77 19.8353 21.1695 19.8353 22.8958C19.8353 24.6221 21.2348 26.0215 22.9611 26.0215Z" stroke="black" stroke-width="1.47216"/>
</svg>
